<svg width="48" height="48" viewBox="0 0 48 48" fill="none" xmlns="http://www.w3.org/2000/svg">
<g clip-path="url(#clip0)">
<path d="M45.6 0.799805H2.4C1.07452 0.799805 0 1.87432 0 3.1998V38.3998C0 40.6089 1.79086 42.3998 4 42.3998H9.928L9.2 43.1998C8.64573 43.8334 8.6772 44.7881 9.272 45.3838L10.4 46.5518C10.7 46.8493 11.1055 47.0161 11.528 47.0158H11.584C12.0227 47.0016 12.4363 46.8078 12.728 46.4798L15.816 42.9838L17.328 44.1918C17.7447 44.5256 18.3004 44.6295 18.8096 44.4689C19.3187 44.3083 19.7142 43.9043 19.864 43.3918L20.144 42.3998H44C46.2091 42.3998 48 40.6089 48 38.3998V3.1998C48 1.87432 46.9255 0.799805 45.6 0.799805V0.799805ZM1.6 3.1998C1.6 2.75798 1.95817 2.3998 2.4 2.3998H45.6C46.0418 2.3998 46.4 2.75798 46.4 3.1998V7.19981H1.6V3.1998ZM10.4 44.2878L9.8 43.7598L10.4 44.2878ZM18.328 42.9438L16.216 41.2638C15.8852 40.9977 15.4041 41.0363 15.12 41.3518L11.528 45.4158L10.4 44.2878L12.256 42.1678L13.792 40.4158C13.9354 40.2505 14.0048 40.0336 13.984 39.8158C13.9645 39.5992 13.8576 39.3999 13.688 39.2638L12.28 38.1358L20.736 34.3998L18.328 42.9438ZM21.784 33.1918C21.316 32.7851 20.6552 32.6853 20.088 32.9358L16 34.7438V15.1998C16 14.758 16.3582 14.3998 16.8 14.3998H31.2C31.6418 14.3998 32 14.758 32 15.1998V35.9998C32 36.4416 31.6418 36.7998 31.2 36.7998H21.72L22.272 34.8398C22.4432 34.2423 22.253 33.5997 21.784 33.1918ZM14.4 32.4718L8.112 21.5998C7.89353 21.2195 8.02199 20.7342 8.4 20.5118L14.4 17.0158V32.4718ZM46.4 38.3998C46.4 39.7253 45.3255 40.7998 44 40.7998H20.592L21.272 38.3998H31.2C32.5255 38.3998 33.6 37.3253 33.6 35.9998V35.6718L41.28 22.3998C41.9381 21.2529 41.5446 19.7898 40.4 19.1278L33.6 15.1998C33.6 13.8743 32.5255 12.7998 31.2 12.7998H16.8C15.4745 12.7998 14.4 13.8743 14.4 15.1998L7.6 19.1038C7.04372 19.4218 6.63772 19.9491 6.47243 20.5682C6.30713 21.1873 6.39628 21.8468 6.72 22.3998L14.296 35.5198L11.656 36.6798C11.1404 36.9033 10.7799 37.3808 10.7061 37.9379C10.6324 38.495 10.8563 39.0499 11.296 39.3998L12.048 39.9998L11.328 40.7998H4C2.67452 40.7998 1.6 39.7253 1.6 38.3998V8.79981H46.4V38.3998ZM39.6 20.4878C39.7882 20.5947 39.9251 20.7733 39.9793 20.9829C40.0336 21.1924 40.0007 21.415 39.888 21.5998L33.6 32.4718V17.0158L39.6 20.4878Z" fill="white"/>
<path d="M4.0002 5.6C4.44202 5.6 4.8002 5.24183 4.8002 4.8C4.8002 4.35817 4.44202 4 4.0002 4C3.55837 4 3.2002 4.35817 3.2002 4.8C3.2002 5.24183 3.55837 5.6 4.0002 5.6Z" fill="white"/>
<path d="M7.1999 5.6C7.64173 5.6 7.9999 5.24183 7.9999 4.8C7.9999 4.35817 7.64173 4 7.1999 4C6.75807 4 6.3999 4.35817 6.3999 4.8C6.3999 5.24183 6.75807 5.6 7.1999 5.6Z" fill="white"/>
<path d="M10.4001 5.6C10.8419 5.6 11.2001 5.24183 11.2001 4.8C11.2001 4.35817 10.8419 4 10.4001 4C9.95827 4 9.6001 4.35817 9.6001 4.8C9.6001 5.24183 9.95827 5.6 10.4001 5.6Z" fill="white"/>
<path d="M43.9999 4H39.1999C38.7581 4 38.3999 4.35817 38.3999 4.8C38.3999 5.24183 38.7581 5.6 39.1999 5.6H43.9999C44.4417 5.6 44.7999 5.24183 44.7999 4.8C44.7999 4.35817 44.4417 4 43.9999 4Z" fill="white"/>
<path d="M24 33.6C24.2886 33.5995 24.5545 33.4436 24.696 33.192L28.696 25.992C28.8389 25.7445 28.8389 25.4395 28.696 25.192L24.696 17.992C24.5539 17.7413 24.2881 17.5864 24 17.5864C23.7119 17.5864 23.446 17.7413 23.304 17.992L19.304 25.192C19.1611 25.4395 19.1611 25.7445 19.304 25.992L23.304 33.192C23.4454 33.4436 23.7113 33.5995 24 33.6ZM24 20.048L27.088 25.6L24 31.152L20.912 25.6L24 20.048Z" fill="white"/>
<path d="M20.0001 16.7995C20.0001 16.3577 19.6419 15.9995 19.2001 15.9995H18.4001C17.9583 15.9995 17.6001 16.3577 17.6001 16.7995C17.6001 17.2413 17.9583 17.5995 18.4001 17.5995H19.2001C19.6419 17.5995 20.0001 17.2413 20.0001 16.7995Z" fill="white"/>
<path d="M28 34.4001C28 34.8419 28.3582 35.2001 28.8 35.2001H29.6C30.0418 35.2001 30.4 34.8419 30.4 34.4001C30.4 33.9583 30.0418 33.6001 29.6 33.6001H28.8C28.3582 33.6001 28 33.9583 28 34.4001Z" fill="white"/>
<path d="M4.8 33.6H9.6C10.0418 33.6 10.4 33.2418 10.4 32.8C10.4 32.3582 10.0418 32 9.6 32H4.8C4.35817 32 4 32.3582 4 32.8C4 33.2418 4.35817 33.6 4.8 33.6Z" fill="white"/>
<path d="M4.8 36.7997H9.6C10.0418 36.7997 10.4 36.4415 10.4 35.9997C10.4 35.5579 10.0418 35.1997 9.6 35.1997H4.8C4.35817 35.1997 4 35.5579 4 35.9997C4 36.4415 4.35817 36.7997 4.8 36.7997Z" fill="white"/>
<path d="M37.6001 32.8C37.6001 33.2418 37.9583 33.6 38.4001 33.6H43.2001C43.6419 33.6 44.0001 33.2418 44.0001 32.8C44.0001 32.3582 43.6419 32 43.2001 32H38.4001C37.9583 32 37.6001 32.3582 37.6001 32.8Z" fill="white"/>
<path d="M43.2001 35.1997H38.4001C37.9583 35.1997 37.6001 35.5579 37.6001 35.9997C37.6001 36.4415 37.9583 36.7997 38.4001 36.7997H43.2001C43.6419 36.7997 44.0001 36.4415 44.0001 35.9997C44.0001 35.5579 43.6419 35.1997 43.2001 35.1997Z" fill="white"/>
</g>
<defs>
<clipPath id="clip0">
<rect width="48" height="48" fill="white"/>
</clipPath>
</defs>
</svg>
