<svg width="262" height="44" viewBox="0 0 262 44" fill="none" xmlns="http://www.w3.org/2000/svg">
<path d="M189.669 44V4.53608C189.669 2.03087 191.703 0 194.212 0H221.925V8.31615H197.998V17.8419H216.322V21.622C216.322 24.1272 214.288 26.1581 211.779 26.1581H197.998V35.6838H221.925V44H189.669Z" fill="white"/>
<path d="M239.64 8.31615V44H247.894V8.31615H262V0H230.336C227.85 0 225.834 2.03087 225.834 4.53608V8.31615H239.64Z" fill="white"/>
<path d="M71.3979 3.32646L71.398 44H79.5579V14.9691L96.4458 44H104.631V0H96.4711V28.7285L79.5896 0H74.6619C72.8593 0 71.3979 1.48931 71.3979 3.32646Z" fill="white"/>
<path d="M123.39 22L108.693 44H120.62L128.541 29.2577L137.253 44H148.541L134.374 22L148.617 0H137.226L128.541 13.8351L120.587 0H108.542L123.39 22Z" fill="white"/>
<path fill-rule="evenodd" clip-rule="evenodd" d="M151.548 44V4.23368C151.548 1.89548 153.518 0 155.947 0H176.526C182.165 0 186.736 4.40023 186.736 9.82818V15.1797C186.736 18.767 183.856 21.7444 180.139 22C183.844 22.2123 186.736 25.1667 186.736 28.7398V33.189V34.1718C186.736 39.5998 182.165 44 176.525 44H151.548ZM160.11 8.39175H172.991C175.681 8.39175 177.861 10.4903 177.861 13.079C177.861 15.6678 175.681 17.7663 172.991 17.7663H160.11V8.39175ZM172.991 26.2337H160.11V35.6082H172.991C175.681 35.6082 177.861 33.5097 177.861 30.921C177.861 28.3322 175.681 26.2337 172.991 26.2337Z" fill="white"/>
<path fill-rule="evenodd" clip-rule="evenodd" d="M38.2873 0H53.9671C60.8949 0 66.511 5.68645 66.511 12.701V15.8763C66.511 22.8909 60.8949 28.5773 53.9671 28.5773H42.4686V44H34.2554V24.0233V4.08247C34.2554 1.82779 36.0605 0 38.2873 0ZM52.5485 8.39175H42.5433V20.1856H52.5485C55.765 20.1856 58.3724 17.5454 58.3724 14.2887C58.3724 11.0319 55.765 8.39175 52.5485 8.39175Z" fill="white"/>
<path d="M5.57059 33.9001L14.8556 44C25.6768 34.3154 22.0187 28.4263 21.5859 27.5841C21.2396 26.9104 13.6504 18.0399 9.89905 13.6888L5.57059 17.8995C0.722723 23.6261 3.83921 30.8123 5.57059 33.9001Z" fill="url(#paint0_linear)"/>
<g filter="url(#filter0_f)">
<path d="M19.5936 25.85L7.86426 36.1778L17.5713 23.4667L19.5936 25.85Z" fill="#C40537"/>
</g>
<path d="M25.2064 16.1506L7.3847 35.2C1.40444 29.8993 0.360698 23.6047 4.47762 18.6353L22.7506 0L25.166 4.02392C29.5003 11.3266 26.4523 14.3561 25.2064 16.1506Z" fill="url(#paint1_linear)"/>
<g filter="url(#filter1_f)">
<path d="M6.89272 16.4848C-0.590819 23.3489 4.4378 31.4324 7.33785 34.2223C3.07006 18.9598 4.76902 20.6098 16.6617 7.82227C16.6617 7.82227 14.538 9.47227 6.89272 16.4848Z" fill="#FDD45F"/>
</g>
<defs>
<filter id="filter0_f" x="6.86426" y="22.4667" width="13.7293" height="14.7111" filterUnits="userSpaceOnUse" color-interpolation-filters="sRGB">
<feFlood flood-opacity="0" result="BackgroundImageFix"/>
<feBlend mode="normal" in="SourceGraphic" in2="BackgroundImageFix" result="shape"/>
<feGaussianBlur stdDeviation="0.5" result="effect1_foregroundBlur"/>
</filter>
<filter id="filter1_f" x="0.977539" y="5.82227" width="17.6842" height="30.4" filterUnits="userSpaceOnUse" color-interpolation-filters="sRGB">
<feFlood flood-opacity="0" result="BackgroundImageFix"/>
<feBlend mode="normal" in="SourceGraphic" in2="BackgroundImageFix" result="shape"/>
<feGaussianBlur stdDeviation="1" result="effect1_foregroundBlur"/>
</filter>
<linearGradient id="paint0_linear" x1="18.2266" y1="24.6366" x2="13.2974" y2="46.1718" gradientUnits="userSpaceOnUse">
<stop stop-color="#FA1366"/>
<stop offset="1" stop-color="#FD6E06"/>
</linearGradient>
<linearGradient id="paint1_linear" x1="24.8271" y1="4.96941" x2="2.46938" y2="29.0516" gradientUnits="userSpaceOnUse">
<stop stop-color="#F91500"/>
<stop offset="1" stop-color="#FDD140"/>
</linearGradient>
</defs>
</svg>
