<svg width="20" height="20" viewBox="0 0 20 20" fill="none" xmlns="http://www.w3.org/2000/svg">
<path d="M20 3.33337H0V16.6668H20V3.33337Z" fill="#F0F0F0"/>
<path d="M11.25 3.33325H8.75V8.74989H0V11.2499H8.75V16.6665H11.25V11.2499H20V8.74989H11.25V3.33325Z" fill="#D80027"/>
<path d="M15.3823 12.3187L20.0001 14.8842V12.3187H15.3823Z" fill="#0052B4"/>
<path d="M12.1738 12.3187L19.9999 16.6665V15.4371L14.3869 12.3187H12.1738Z" fill="#0052B4"/>
<path d="M17.9153 16.6666L12.1738 13.4766V16.6666H17.9153Z" fill="#0052B4"/>
<path d="M12.1738 12.3187L19.9999 16.6665V15.4371L14.3869 12.3187H12.1738Z" fill="#F0F0F0"/>
<path d="M12.1738 12.3187L19.9999 16.6665V15.4371L14.3869 12.3187H12.1738Z" fill="#D80027"/>
<path d="M3.52895 12.3186L0 14.2792V12.3186H3.52895Z" fill="#0052B4"/>
<path d="M7.82596 12.8715V16.6664H0.995605L7.82596 12.8715Z" fill="#0052B4"/>
<path d="M5.61301 12.3187L0 15.4371V16.6665L7.82609 12.3187H5.61301Z" fill="#D80027"/>
<path d="M4.61777 7.68107L0 5.1156V7.68107H4.61777Z" fill="#0052B4"/>
<path d="M7.82609 7.68106L0 3.33325V4.56271L5.61301 7.68106H7.82609Z" fill="#0052B4"/>
<path d="M2.08447 3.33325L7.82596 6.52325V3.33325H2.08447Z" fill="#0052B4"/>
<path d="M7.82609 7.68106L0 3.33325V4.56271L5.61301 7.68106H7.82609Z" fill="#F0F0F0"/>
<path d="M7.82609 7.68106L0 3.33325V4.56271L5.61301 7.68106H7.82609Z" fill="#D80027"/>
<path d="M16.4707 7.68113L19.9996 5.72058V7.68113H16.4707Z" fill="#0052B4"/>
<path d="M12.1738 7.12821V3.33325H19.0042L12.1738 7.12821Z" fill="#0052B4"/>
<path d="M14.3869 7.68106L19.9999 4.56271V3.33325L12.1738 7.68106H14.3869Z" fill="#D80027"/>
</svg>
