<svg width="48" height="48" viewBox="0 0 48 48" fill="none" xmlns="http://www.w3.org/2000/svg">
<g clip-path="url(#clip0)">
<path d="M35 48C27.832 48 22 42.168 22 35C22 27.832 27.832 22 35 22C42.168 22 48 27.832 48 35C48 42.168 42.168 48 35 48ZM35 24C28.934 24 24 28.936 24 35C24 41.064 28.934 46 35 46C41.066 46 46 41.064 46 35C46 28.936 41.066 24 35 24Z" fill="white"/>
<path d="M33 39.9999C32.736 39.9999 32.48 39.8939 32.292 39.7079L28.292 35.7079C27.902 35.3179 27.902 34.6839 28.292 34.2939C28.682 33.9039 29.316 33.9039 29.706 34.2939L32.95 37.5379L39.246 30.3419C39.61 29.9239 40.242 29.8839 40.658 30.2479C41.074 30.6119 41.116 31.2419 40.752 31.6579L33.752 39.6579C33.57 39.8659 33.308 39.9899 33.032 39.9999C33.022 39.9999 33.01 39.9999 33 39.9999Z" fill="white"/>
<path d="M19 42H5C2.244 42 0 39.758 0 37V11C0 8.242 2.244 6 5 6H9C9.552 6 10 6.448 10 7C10 7.552 9.552 8 9 8H5C3.346 8 2 9.346 2 11V37C2 38.654 3.346 40 5 40H19C19.552 40 20 40.448 20 41C20 41.552 19.552 42 19 42Z" fill="white"/>
<path d="M33 18C32.448 18 32 17.552 32 17V11C32 9.346 30.654 8 29 8H25C24.448 8 24 7.552 24 7C24 6.448 24.448 6 25 6H29C31.756 6 34 8.242 34 11V17C34 17.552 33.552 18 33 18Z" fill="white"/>
<path d="M23 12H11C9.346 12 8 10.654 8 9V5C8 4.448 8.448 4 9 4H12.1C12.566 1.72 14.584 0 17 0C19.416 0 21.434 1.72 21.9 4H25C25.552 4 26 4.448 26 5V9C26 10.654 24.654 12 23 12ZM10 6V9C10 9.55 10.448 10 11 10H23C23.552 10 24 9.55 24 9V6H21C20.448 6 20 5.552 20 5C20 3.346 18.654 2 17 2C15.346 2 14 3.346 14 5C14 5.552 13.552 6 13 6H10Z" fill="white"/>
<path d="M27 18H7C6.448 18 6 17.552 6 17C6 16.448 6.448 16 7 16H27C27.552 16 28 16.448 28 17C28 17.552 27.552 18 27 18Z" fill="white"/>
<path d="M21 24H7C6.448 24 6 23.552 6 23C6 22.448 6.448 22 7 22H21C21.552 22 22 22.448 22 23C22 23.552 21.552 24 21 24Z" fill="white"/>
<path d="M17 30H7C6.448 30 6 29.552 6 29C6 28.448 6.448 28 7 28H17C17.552 28 18 28.448 18 29C18 29.552 17.552 30 17 30Z" fill="white"/>
</g>
<defs>
<clipPath id="clip0">
<rect width="48" height="48" fill="white"/>
</clipPath>
</defs>
</svg>
